<svg id="svg" version="1.1" width="400" height="400" viewBox="0 0 400 400" xmlns="http://www.w3.org/2000/svg" xmlns:xlink="http://www.w3.org/1999/xlink"><g id="svgg"><path id="path0" d="M130.370 22.439 C 117.351 23.437,97.783 26.474,91.111 28.532 C 90.398 28.752,89.398 29.012,88.889 29.111 C 81.369 30.566,63.298 37.242,53.148 42.314 C 34.452 51.658,12.781 70.050,14.670 74.971 C 15.039 75.933,15.885 75.651,18.281 73.764 C 51.128 47.892,136.531 36.769,209.259 48.889 C 262.724 57.799,307.400 79.795,327.704 107.205 C 342.475 127.146,337.018 149.722,313.353 166.571 C 308.683 169.896,303.049 173.520,298.889 175.874 C 296.343 177.315,294.051 178.672,293.796 178.891 C 293.542 179.110,293.333 179.196,293.333 179.084 C 293.333 178.972,292.208 179.446,290.833 180.138 C 289.458 180.830,285.667 182.511,282.407 183.872 C 279.148 185.233,276.148 186.493,275.741 186.671 C 270.758 188.856,244.007 197.407,242.156 197.407 C 241.738 197.407,241.775 194.928,242.242 191.738 C 243.746 181.459,244.819 175.691,246.494 168.889 C 247.337 165.464,249.293 158.060,249.821 156.296 C 250.096 155.380,250.769 153.130,251.317 151.296 C 254.209 141.626,259.656 126.857,263.268 118.889 C 266.988 110.684,269.794 105.274,271.024 103.935 C 271.795 103.095,272.829 101.741,273.322 100.926 C 273.815 100.111,275.591 97.669,277.269 95.498 C 284.511 86.130,284.025 78.833,275.864 74.425 C 272.605 72.664,263.559 72.712,264.654 74.483 C 264.763 74.661,264.636 74.724,264.371 74.623 C 262.787 74.020,255.495 81.688,251.984 87.648 C 249.655 91.602,249.198 92.471,249.154 93.030 C 249.127 93.372,248.984 93.577,248.835 93.485 C 248.414 93.225,246.599 97.109,246.794 97.855 C 246.890 98.220,246.826 98.432,246.652 98.324 C 246.087 97.975,239.632 111.737,236.225 120.556 C 235.175 123.272,231.328 134.984,230.567 137.778 C 230.207 139.102,229.692 140.935,229.424 141.852 C 228.539 144.879,225.925 155.550,225.999 155.833 C 226.039 155.986,225.814 157.028,225.500 158.148 C 224.375 162.161,222.121 174.399,222.073 176.758 C 222.053 177.725,221.932 178.517,221.805 178.517 C 221.410 178.519,220.639 184.360,220.897 185.389 C 221.043 185.968,220.999 186.271,220.788 186.141 C 220.299 185.838,219.919 188.320,218.893 198.513 C 218.441 203.010,218.422 203.036,215.000 203.832 C 207.431 205.593,185.518 209.630,183.526 209.630 C 182.988 209.630,182.637 209.772,182.745 209.946 C 182.852 210.121,182.566 210.192,182.108 210.104 C 181.650 210.017,178.280 210.388,174.619 210.929 C 170.958 211.470,167.463 211.962,166.852 212.023 C 166.241 212.084,163.140 212.503,159.961 212.952 L 154.181 213.770 147.924 210.714 C 144.482 209.032,140.250 207.040,138.519 206.285 L 135.370 204.914 135.255 186.809 C 135.180 174.968,135.308 165.820,135.626 160.370 C 135.893 155.787,136.111 150.344,136.111 148.275 C 136.111 146.206,136.234 144.706,136.383 144.942 C 136.533 145.177,136.658 144.582,136.661 143.618 C 136.664 142.654,136.845 140.654,137.063 139.174 C 137.280 137.693,137.702 134.815,138.001 132.778 C 138.799 127.322,139.234 124.899,139.878 122.311 C 140.195 121.036,140.368 119.660,140.262 119.255 C 140.156 118.849,140.195 118.595,140.349 118.690 C 140.503 118.785,140.832 117.911,141.080 116.746 C 142.321 110.926,145.973 101.851,149.189 96.596 C 150.014 95.248,150.589 94.046,150.468 93.925 C 150.346 93.803,150.450 93.704,150.698 93.704 C 151.470 93.704,153.471 88.900,153.628 86.673 C 154.206 78.456,144.638 72.129,136.952 75.647 C 125.095 81.075,114.028 112.557,111.268 148.704 C 110.285 161.583,109.999 168.958,110.000 181.429 C 110.000 193.863,109.931 195.608,109.448 195.423 C 107.070 194.511,102.388 193.301,101.815 193.450 C 101.427 193.552,101.188 193.509,101.283 193.355 C 101.378 193.201,100.503 192.864,99.339 192.606 C 98.175 192.348,96.722 192.002,96.111 191.837 C 94.791 191.481,88.505 190.215,85.370 189.675 C 72.210 187.405,52.956 186.792,52.374 188.624 C 52.193 189.195,52.072 189.246,51.831 188.855 C 51.644 188.553,51.695 188.245,51.957 188.083 C 52.463 187.770,49.186 188.003,45.185 188.563 C 22.178 191.786,6.872 201.347,3.159 214.815 C -1.222 230.702,12.128 245.589,35.185 250.528 C 35.694 250.637,37.694 251.064,39.630 251.478 C 51.916 254.101,75.436 254.771,90.556 252.928 C 97.423 252.091,108.449 250.376,110.416 249.838 C 111.255 249.609,111.420 249.706,111.633 250.551 C 111.931 251.741,111.970 271.756,111.680 274.728 C 111.565 275.896,111.306 280.058,111.103 283.977 C 110.901 287.896,110.584 291.896,110.401 292.866 C 110.217 293.836,109.873 296.546,109.635 298.889 C 109.398 301.231,108.965 304.481,108.674 306.111 C 107.360 313.452,106.956 315.508,106.437 317.510 C 106.132 318.686,105.986 320.020,106.113 320.473 C 106.279 321.060,106.243 321.150,105.991 320.785 C 105.732 320.410,105.564 320.708,105.365 321.896 C 105.215 322.788,104.632 324.185,104.070 325.000 C 103.507 325.815,102.308 327.648,101.405 329.074 C 98.661 333.408,94.965 337.945,90.617 342.315 C 88.343 344.601,86.523 346.598,86.574 346.754 C 86.625 346.910,86.442 347.037,86.168 347.037 C 85.893 347.037,84.268 348.084,82.556 349.364 C 78.990 352.032,76.951 353.321,72.778 355.547 C 67.627 358.295,65.783 360.509,64.789 365.143 C 63.134 372.859,71.454 380.568,79.050 378.357 C 96.851 373.175,126.077 342.876,129.981 325.556 C 130.417 323.620,131.036 320.954,131.355 319.630 C 131.675 318.306,132.071 316.389,132.235 315.370 C 132.399 314.352,132.801 311.935,133.127 310.000 C 133.453 308.065,133.892 305.159,134.103 303.543 C 134.313 301.927,134.566 300.473,134.667 300.311 C 135.237 299.387,136.812 274.679,136.279 275.010 C 136.167 275.080,135.834 274.983,135.538 274.796 C 135.118 274.530,135.183 274.455,135.833 274.450 L 136.667 274.444 136.667 258.949 L 136.667 243.453 141.019 242.429 C 143.412 241.865,147.444 240.905,149.978 240.296 C 154.296 239.259,154.656 239.225,155.718 239.765 C 157.278 240.558,160.740 242.528,164.167 244.571 C 165.745 245.513,167.040 246.162,167.043 246.012 C 167.046 245.863,167.171 245.929,167.320 246.159 C 167.470 246.389,169.093 247.492,170.926 248.609 C 177.334 252.516,185.223 257.413,186.218 258.102 C 186.771 258.484,189.013 259.943,191.202 261.343 C 193.391 262.743,199.808 266.972,205.462 270.741 L 215.741 277.593 216.012 280.847 C 216.161 282.636,216.443 286.886,216.640 290.291 C 217.090 298.096,217.657 304.590,218.349 309.845 C 218.646 312.103,218.889 314.548,218.889 315.280 C 218.889 316.012,219.049 317.415,219.246 318.398 C 219.442 319.381,219.798 321.473,220.037 323.046 C 220.276 324.620,220.574 325.844,220.699 325.767 C 220.824 325.689,220.932 326.485,220.940 327.535 C 221.038 341.149,232.589 359.638,246.667 368.714 C 255.934 374.688,266.123 370.121,266.106 360.000 C 266.098 354.976,264.384 352.462,258.156 348.333 C 252.535 344.607,244.864 334.110,244.799 330.055 C 244.776 328.640,243.859 324.913,243.671 325.472 C 243.584 325.731,243.510 325.148,243.507 324.176 C 243.504 323.203,243.143 320.074,242.705 317.222 C 241.905 312.005,240.964 303.577,240.540 297.824 L 240.311 294.722 241.545 295.591 C 242.223 296.069,246.281 298.965,250.564 302.026 C 262.092 310.268,266.081 313.009,266.373 312.887 C 266.517 312.827,266.850 313.054,267.114 313.391 C 268.325 314.944,294.490 332.252,303.889 337.719 C 314.442 343.857,318.064 345.834,325.741 349.650 L 334.630 354.068 340.185 354.702 C 355.881 356.494,379.465 355.027,393.858 351.365 C 400.682 349.628,399.084 348.121,389.074 346.854 C 365.058 343.814,333.236 329.782,297.778 306.597 C 290.404 301.775,289.228 301.087,288.811 301.345 C 288.586 301.484,288.508 301.427,288.637 301.219 C 288.765 301.012,286.440 299.212,283.469 297.221 C 278.464 293.865,269.085 287.379,262.037 282.400 C 246.550 271.460,244.938 270.374,244.614 270.666 C 244.455 270.809,244.424 270.753,244.544 270.541 C 244.663 270.330,243.398 269.233,241.733 268.103 L 238.704 266.050 238.704 249.229 C 238.704 237.723,238.868 230.622,239.223 226.758 L 239.743 221.109 241.075 220.767 C 284.226 209.673,314.471 195.874,335.370 177.745 C 345.042 169.355,351.067 161.458,355.551 151.296 C 357.849 146.089,359.207 141.131,359.513 136.833 C 359.686 134.394,359.617 133.744,359.131 133.258 C 358.635 132.762,358.623 132.632,359.060 132.464 C 359.357 132.350,359.663 132.535,359.766 132.891 C 360.282 134.660,359.477 122.645,358.877 119.629 C 357.972 115.076,355.333 107.143,353.734 104.170 C 346.284 90.313,334.677 78.243,318.474 67.500 C 271.619 36.436,193.106 17.627,130.370 22.439 M72.222 209.056 C 83.528 210.334,91.189 212.020,102.853 215.794 C 111.115 218.468,110.431 217.796,110.755 223.556 C 111.074 229.211,111.396 228.695,106.975 229.604 C 74.399 236.307,40.299 234.683,26.902 225.790 C 13.355 216.798,43.206 205.776,72.222 209.056 M112.039 226.293 C 111.611 226.986,111.111 226.673,111.111 225.714 C 111.111 224.850,111.165 224.816,111.690 225.341 C 112.009 225.660,112.166 226.088,112.039 226.293 M216.669 227.500 C 216.674 229.103,215.484 250.186,215.383 250.292 C 215.327 250.351,213.801 249.421,211.992 248.227 C 206.962 244.905,204.949 243.627,195.741 237.902 C 191.056 234.989,186.972 232.446,186.667 232.251 C 186.232 231.973,186.325 231.891,187.099 231.874 C 188.031 231.853,199.026 230.003,205.926 228.706 C 207.657 228.380,209.991 227.950,211.111 227.750 C 212.231 227.550,213.731 227.242,214.444 227.065 C 216.453 226.566,216.666 226.607,216.669 227.500 M113.181 263.239 C 112.776 263.643,112.499 263.000,112.789 262.331 C 113.065 261.696,113.085 261.697,113.238 262.344 C 113.327 262.716,113.301 263.119,113.181 263.239 " stroke="none" fill="#fcfcfc" fill-rule="evenodd" data-darkreader-inline-fill="" data-darkreader-inline-stroke="" ></path><path id="path1" d="M359.022 132.506 C 358.717 132.703,358.742 132.909,359.115 133.255 C 359.542 133.652,359.630 133.604,359.630 132.978 C 359.630 132.135,359.615 132.123,359.022 132.506 M51.953 188.085 C 51.703 188.240,51.647 188.557,51.820 188.837 C 52.052 189.213,52.174 189.178,52.365 188.682 C 52.660 187.911,52.534 187.727,51.953 188.085 M111.111 225.714 C 111.111 226.673,111.611 226.986,112.039 226.293 C 112.166 226.088,112.009 225.660,111.690 225.341 C 111.165 224.816,111.111 224.850,111.111 225.714 M112.789 262.331 C 112.631 262.696,112.605 263.099,112.732 263.226 C 113.108 263.602,113.411 263.074,113.238 262.344 C 113.085 261.697,113.065 261.696,112.789 262.331 " stroke="none" fill="#e4e4e4" fill-rule="evenodd" data-darkreader-inline-fill="" data-darkreader-inline-stroke="" ></path></g></svg>