<?xml version="1.0"?><svg version="1.2" baseProfile="tiny-ps" viewBox="0 0 300 300" xmlns="http://www.w3.org/2000/svg" xmlns:xlink="http://www.w3.org/1999/xlink"><title>Rusty</title><g><g fill="#fff" transform="matrix(.1 0 0 -.1 0 300)"><path d="m262 1498 3-1323h290l3 1193 2 1193 348-3 347-3 57-28 57-28 57-62 58-62 32-70 32-70 16-77c20-97 20-139 0-236l-16-77-30-63-30-63-52-53-53-53-49-24-49-24-247-3c-137-2-248-6-248-9 0-8 691-1356 702-1370l10-13h148c80 0 149 3 152 6 4 3-120 255-274 560l-280 554h1192V180h300v2640h-300V1560h-710l34 53c41 64 78 150 102 237l18 65-1 135-1 135-21 80-21 80-44 90-44 90-59 70-58 69-76 52c-42 28-103 62-135 75l-59 24-553 3-552 3 2-1323z"/></g></g></svg>