<?xml version="1.0" encoding="UTF-8"?>
<svg version="1.1" xmlns="http://www.w3.org/2000/svg" width="1080" height="1080">
<path d="M0 0 C123.75 0 247.5 0 375 0 C375 0.66 375 1.32 375 2 C375.64066406 1.98839844 376.28132813 1.97679687 376.94140625 1.96484375 C382.08653222 1.91116881 386.93024924 2.11830422 392 3 C392 3.66 392 4.32 392 5 C392.81984375 5.06058594 393.6396875 5.12117188 394.484375 5.18359375 C395.56203125 5.26738281 396.6396875 5.35117188 397.75 5.4375 C398.81734375 5.51871094 399.8846875 5.59992188 400.984375 5.68359375 C403.43679962 5.94090773 405.63921291 6.31812218 408 7 C408 7.66 408 8.32 408 9 C409.258125 9.0825 410.51625 9.165 411.8125 9.25 C417.55842241 9.86302038 422.66812307 11.8572831 428 14 C428 14.66 428 15.32 428 16 C429.175625 16.268125 430.35125 16.53625 431.5625 16.8125 C435.60642688 17.81447119 439.2167107 19.2659924 443 21 C443 21.66 443 22.32 443 23 C443.598125 23.144375 444.19625 23.28875 444.8125 23.4375 C446.56150404 23.8872439 448.28677023 24.42892341 450 25 C450 25.66 450 26.32 450 27 C451.65 27.33 453.3 27.66 455 28 C455 28.66 455 29.32 455 30 C455.845625 30.2475 456.69125 30.495 457.5625 30.75 C461.38427474 32.13973627 464.51868063 33.91120838 468 36 C468 36.66 468 37.32 468 38 C469.32 38.33 470.64 38.66 472 39 C472 39.66 472 40.32 472 41 C472.969375 41.28875 473.93875 41.5775 474.9375 41.875 C478 43 478 43 479 45 C479.99 45.33 480.98 45.66 482 46 C484.1875 47.9375 484.1875 47.9375 486 50 C486 50.66 486 51.32 486 52 C487.32 52.33 488.64 52.66 490 53 C490 53.66 490 54.32 490 55 C491.32 55.66 492.64 56.32 494 57 C494 57.66 494 58.32 494 59 C494.804375 59.3403125 494.804375 59.3403125 495.625 59.6875 C500.69790732 62.49094878 504.6791427 66.27416462 508 71 C508 71.66 508 72.32 508 73 C509.32 73.66 510.64 74.32 512 75 C512 75.66 512 76.32 512 77 C512.99 77.33 513.98 77.66 515 78 C515 78.66 515 79.32 515 80 C516.32 80.66 517.64 81.32 519 82 C519 82.99 519 83.98 519 85 C519.99 85.33 520.98 85.66 522 86 C524.36506843 88.00121175 524.9893322 88.96799661 526 92 C526.7425 92.7425 526.7425 92.7425 527.5 93.5 C529 95 529 95 530 98 C530.99 98.66 531.98 99.32 533 100 C533 100.99 533 101.98 533 103 C533.66 103 534.32 103 535 103 C535.66 104.98 536.32 106.96 537 109 C537.66 109 538.32 109 539 109 C539.83848804 110.45537568 540.67063934 111.91440373 541.5 113.375 C541.9640625 114.18710938 542.428125 114.99921875 542.90625 115.8359375 C544 118 544 118 544 120 C544.66 120 545.32 120 546 120 C547.42396556 122.84793113 548.84706507 125.69624504 550.265625 128.546875 C551.40519415 130.81574691 552.56101507 133.07654243 553.734375 135.328125 C554.27578125 136.37484375 554.8171875 137.4215625 555.375 138.5 C555.87773438 139.4590625 556.38046875 140.418125 556.8984375 141.40625 C558 144 558 144 558 148 C558.66 148 559.32 148 560 148 C566.26874294 163.58056497 566.26874294 163.58056497 568.22265625 168.93359375 C568.85043375 170.60240933 569.51186353 172.25854233 570.18359375 173.91015625 C572.84973504 180.54781958 574.87995689 187.01868651 576.32421875 194.02734375 C576.95539823 197.03563887 576.95539823 197.03563887 578.015625 200.015625 C578.98501545 202.95457066 579.56587214 205.76178599 580.0625 208.8125 C580.38148233 212.2126844 580.38148233 212.2126844 582 215 C582.47930671 218.20536362 582.87206832 221.41058178 583.25 224.62890625 C583.40362705 228.11109275 583.40362705 228.11109275 585 231 C587.15505918 246.84808129 587.31363149 262.74614044 587.26074219 278.71362305 C587.25000364 282.56119501 587.26071426 286.40830127 587.2734375 290.25585938 C587.28124088 304.56851822 587.04271155 318.80997641 585 333 C584.67 333.33 584.34 333.66 584 334 C583.64896799 336.03539568 583.34448032 338.07889489 583.0625 340.125 C582.36014311 344.90622951 581.39776695 349.36989698 580 354 C579.28214818 357.32375228 578.6319115 360.65893601 578 364 C577.34 364 576.68 364 576 364 C575.96132812 364.89138672 575.96132812 364.89138672 575.921875 365.80078125 C575.44754135 372.7325208 573.62077395 378.58824606 571 385 C570.34 385 569.68 385 569 385 C568.9175 385.94875 568.835 386.8975 568.75 387.875 C568.06008234 392.88977467 565.99662356 397.38454926 564 402 C563.34 402 562.68 402 562 402 C561.855625 403.11375 561.71125 404.2275 561.5625 405.375 C561 409 561 409 560 411 C559.34 411 558.68 411 558 411 C557.67 412.98 557.34 414.96 557 417 C556.34 417 555.68 417 555 417 C554.855625 417.94875 554.71125 418.8975 554.5625 419.875 C554 423 554 423 553 425 C552.34 425 551.68 425 551 425 C550.855625 425.598125 550.71125 426.19625 550.5625 426.8125 C550.1127561 428.56150404 549.57107659 430.28677023 549 432 C548.34 432 547.68 432 547 432 C546.67 433.32 546.34 434.64 546 436 C545.34 436 544.68 436 544 436 C543.67 437.98 543.34 439.96 543 442 C542.01 442.33 541.02 442.66 540 443 C539.67 444.65 539.34 446.3 539 448 C538.34 448 537.68 448 537 448 C536.34 449.98 535.68 451.96 535 454 C534.34 454 533.68 454 533 454 C533 454.66 533 455.32 533 456 C616.49 456 699.98 456 786 456 C786 305.52 786 155.04 786 0 C821.64 0 857.28 0 894 0 C894 315.48 894 630.96 894 956 C858.36 956 822.72 956 786 956 C786 823.67 786 691.34 786 555 C575.13 555.495 575.13 555.495 360 556 C360.66 557.32 361.32 558.64 362 560 C362 560.99 362 561.98 362 563 C362.66 563 363.32 563 364 563 C364.84026396 564.76755526 365.67198722 566.53917263 366.5 568.3125 C366.9640625 569.29863281 367.428125 570.28476562 367.90625 571.30078125 C369 574 369 574 369 577 C369.66 577 370.32 577 371 577 C371.84026396 578.76755526 372.67198722 580.53917263 373.5 582.3125 C373.9640625 583.29863281 374.428125 584.28476562 374.90625 585.30078125 C376 588 376 588 376 591 C376.66 591 377.32 591 378 591 C379.25664978 593.90600261 380 595.79604584 380 599 C380.66 599 381.32 599 382 599 C382.33 600.98 382.66 602.96 383 605 C383.66 605 384.32 605 385 605 C386.25664978 607.90600261 387 609.79604584 387 613 C387.66 613 388.32 613 389 613 C389.84026396 614.76755526 390.67198722 616.53917263 391.5 618.3125 C391.9640625 619.29863281 392.428125 620.28476562 392.90625 621.30078125 C394 624 394 624 394 627 C394.66 627 395.32 627 396 627 C396.84026396 628.76755526 397.67198722 630.53917263 398.5 632.3125 C398.9640625 633.29863281 399.428125 634.28476562 399.90625 635.30078125 C401 638 401 638 401 641 C401.66 641 402.32 641 403 641 C404.25664978 643.90600261 405 645.79604584 405 649 C405.66 649 406.32 649 407 649 C407.33 650.98 407.66 652.96 408 655 C408.66 655 409.32 655 410 655 C411.25664978 657.90600261 412 659.79604584 412 663 C412.66 663 413.32 663 414 663 C414.4846875 663.969375 414.969375 664.93875 415.46875 665.9375 C415.78908203 666.57792236 416.10941406 667.21834473 416.43945312 667.87817383 C417.15247246 669.30470492 417.86469927 670.7316324 418.57617188 672.15893555 C420.47003214 675.95539312 422.37671546 679.74425757 424.3125 683.51953125 C424.67923828 684.23947266 425.04597656 684.95941406 425.42382812 685.70117188 C426.1312503 687.08905459 426.84336041 688.47455958 427.56054688 689.85742188 C429.03930814 692.77031379 430 694.68534744 430 698 C430.66 698 431.32 698 432 698 C432.84026396 699.76755526 433.67198722 701.53917263 434.5 703.3125 C434.9640625 704.29863281 435.428125 705.28476562 435.90625 706.30078125 C437 709 437 709 437 712 C437.66 712 438.32 712 439 712 C439.25692627 712.54938232 439.51385254 713.09876465 439.77856445 713.66479492 C440.95378039 716.17366801 442.13310075 718.6805909 443.3125 721.1875 C443.71662109 722.05181641 444.12074219 722.91613281 444.53710938 723.80664062 C446.17420327 727.28047402 447.78458799 730.64848889 449.79296875 733.92578125 C451 736 451 736 451 739 C451.66 739 452.32 739 453 739 C453.66 741.97 454.32 744.94 455 748 C455.66 748 456.32 748 457 748 C457.33 749.65 457.66 751.3 458 753 C458.66 753 459.32 753 460 753 C464.40774487 762.41002278 464.40774487 762.41002278 465 767 C465.66 767 466.32 767 467 767 C467.66 769.64 468.32 772.28 469 775 C469.66 775 470.32 775 471 775 C471.33 776.98 471.66 778.96 472 781 C472.66 781 473.32 781 474 781 C475.25664978 783.90600261 476 785.79604584 476 789 C476.66 789 477.32 789 478 789 C478.495 790.175625 478.99 791.35125 479.5 792.5625 C481.46993234 797.00891871 483.69781838 801.28254473 486 805.5625 C486.34933594 806.21259033 486.69867187 806.86268066 487.05859375 807.5324707 C487.73542151 808.7908276 488.41249465 810.04905256 489.08984375 811.30712891 C494 820.43991416 494 820.43991416 494 824 C494.66 824 495.32 824 496 824 C500.40774487 833.41002278 500.40774487 833.41002278 501 838 C501.66 838 502.32 838 503 838 C504.25664978 840.90600261 505 842.79604584 505 846 C505.66 846 506.32 846 507 846 C507.33 847.98 507.66 849.96 508 852 C508.66 852 509.32 852 510 852 C511.25664978 854.90600261 512 856.79604584 512 860 C512.66 860 513.32 860 514 860 C514.33 861.98 514.66 863.96 515 866 C515.66 866 516.32 866 517 866 C518.25664978 868.90600261 519 870.79604584 519 874 C519.66 874 520.32 874 521 874 C521.33 875.98 521.66 877.96 522 880 C522.66 880 523.32 880 524 880 C525.25664978 882.90600261 526 884.79604584 526 888 C526.66 888 527.32 888 528 888 C529.25664978 890.90600261 530 892.79604584 530 896 C530.66 896 531.32 896 532 896 C532.33 897.98 532.66 899.96 533 902 C533.66 902 534.32 902 535 902 C536.25664978 904.90600261 537 906.79604584 537 910 C537.66 910 538.32 910 539 910 C539.33 911.98 539.66 913.96 540 916 C540.66 916 541.32 916 542 916 C543.25664978 918.90600261 544 920.79604584 544 924 C544.66 924 545.32 924 546 924 C547.32002556 926.55886504 548.63113782 929.12167068 549.9375 931.6875 C550.31068359 932.40873047 550.68386719 933.12996094 551.06835938 933.87304688 C552.93965239 937.56505742 554.48269556 940.83693096 555 945 C555.66 945 556.32 945 557 945 C558.32 948.3 559.64 951.6 561 955 C560 956 560 956 558.04971981 956.12304783 C557.18784337 956.12212604 556.32596693 956.12120424 555.43797302 956.12025452 C554.45214233 956.12162918 553.46631165 956.12300385 552.4506073 956.12442017 C551.36016617 956.12082489 550.26972504 956.11722961 549.14624023 956.11352539 C547.43426956 956.11374443 547.43426956 956.11374443 545.68771362 956.1139679 C541.89465469 956.11326818 538.10164416 956.10547307 534.30859375 956.09765625 C531.68685432 956.09579228 529.06511454 956.09436828 526.44337463 956.09336853 C520.23498045 956.09025551 514.02660379 956.08204252 507.81821734 956.07201904 C500.75182559 956.06085699 493.68543301 956.05534722 486.61903465 956.05032361 C472.07934737 956.03985988 457.53967393 956.022261 443 956 C442.67 954.68 442.34 953.36 442 952 C441.34 952 440.68 952 440 952 C439.67 950.02 439.34 948.04 439 946 C438.34 946 437.68 946 437 946 C435.74335022 943.09399739 435 941.20395416 435 938 C434.34 938 433.68 938 433 938 C432.76925781 937.45472656 432.53851562 936.90945313 432.30078125 936.34765625 C430.13801678 931.3467977 427.7395826 926.62857558 424.953125 921.9453125 C424 920 424 920 424 917 C423.34 917 422.68 917 422 917 C421.67 915.02 421.34 913.04 421 911 C420.34 911 419.68 911 419 911 C417.74335022 908.09399739 417 906.20395416 417 903 C416.34 903 415.68 903 415 903 C414.15973604 901.23244474 413.32801278 899.46082737 412.5 897.6875 C412.0359375 896.70136719 411.571875 895.71523438 411.09375 894.69921875 C410 892 410 892 410 889 C409.34 889 408.68 889 408 889 C407.15973604 887.23244474 406.32801278 885.46082737 405.5 883.6875 C405.0359375 882.70136719 404.571875 881.71523438 404.09375 880.69921875 C403 878 403 878 403 875 C402.34 875 401.68 875 401 875 C398.66666667 870.33333333 396.33333333 865.66666667 394 861 C393.59523438 860.25234375 393.19046875 859.5046875 392.7734375 858.734375 C392 857 392 857 392 854 C391.34 854 390.68 854 390 854 C388.36915673 850.6277935 386.74638276 847.2517641 385.125 843.875 C384.66480469 842.92367187 384.20460938 841.97234375 383.73046875 840.9921875 C381.52695248 836.39354486 379.43801413 831.90908274 378 827 C377.34 827 376.68 827 376 827 C375.34 824.03 374.68 821.06 374 818 C373.34 818 372.68 818 372 818 C371.67 816.35 371.34 814.7 371 813 C370.34 813 369.68 813 369 813 C367.67997444 810.44113496 366.36886218 807.87832932 365.0625 805.3125 C364.68931641 804.59126953 364.31613281 803.87003906 363.93164062 803.12695312 C362.06034761 799.43494258 360.51730444 796.16306904 360 792 C359.34 792 358.68 792 358 792 C357.54625 790.9275 357.0925 789.855 356.625 788.75 C355.75087221 786.69517827 354.85577339 784.72672852 353.8125 782.75 C353 781 353 781 353 778 C352.34 778 351.68 778 351 778 C349.74335022 775.09399739 349 773.20395416 349 770 C348.34 770 347.68 770 347 770 C346.67 768.02 346.34 766.04 346 764 C345.34 764 344.68 764 344 764 C342.74335022 761.09399739 342 759.20395416 342 756 C341.34 756 340.68 756 340 756 C339.15930585 754.39967863 338.32768495 752.79458829 337.5 751.1875 C337.0359375 750.29417969 336.571875 749.40085937 336.09375 748.48046875 C335 746 335 746 335 743 C334.34 743 333.68 743 333 743 C332.15973604 741.23244474 331.32801278 739.46082737 330.5 737.6875 C330.0359375 736.70136719 329.571875 735.71523438 329.09375 734.69921875 C328 732 328 732 328 729 C327.34 729 326.68 729 326 729 C324.74335022 726.09399739 324 724.20395416 324 721 C323.34 721 322.68 721 322 721 C321.15973604 719.23244474 320.32801278 717.46082737 319.5 715.6875 C319.0359375 714.70136719 318.571875 713.71523438 318.09375 712.69921875 C317 710 317 710 317 707 C316.34 707 315.68 707 315 707 C314.67 705.35 314.34 703.7 314 702 C313.34 702 312.68 702 312 702 C311.505 700.824375 311.01 699.64875 310.5 698.4375 C308.53006766 693.99108129 306.30218162 689.71745527 304 685.4375 C303.65066406 684.78740967 303.30132812 684.13731934 302.94140625 683.4675293 C302.26457849 682.2091724 301.58750535 680.95094744 300.91015625 679.69287109 C296 670.56008584 296 670.56008584 296 667 C295.34 667 294.68 667 294 667 C293.34 664.36 292.68 661.72 292 659 C291.34 659 290.68 659 290 659 C289.67 657.02 289.34 655.04 289 653 C288.34 653 287.68 653 287 653 C285.74335022 650.09399739 285 648.20395416 285 645 C284.34 645 283.68 645 283 645 C282.76925781 644.45472656 282.53851563 643.90945313 282.30078125 643.34765625 C280.13801678 638.3467977 277.7395826 633.62857558 274.953125 628.9453125 C274 627 274 627 274 624 C273.34 624 272.68 624 272 624 C271.67 622.02 271.34 620.04 271 618 C270.34 618 269.68 618 269 618 C267.74335022 615.09399739 267 613.20395416 267 610 C266.34 610 265.68 610 265 610 C264.67 608.02 264.34 606.04 264 604 C263.34 604 262.68 604 262 604 C260.74335022 601.09399739 260 599.20395416 260 596 C259.34 596 258.68 596 258 596 C256.74335022 593.09399739 256 591.20395416 256 588 C255.34 588 254.68 588 254 588 C253.67 586.02 253.34 584.04 253 582 C252.34 582 251.68 582 251 582 C248.66666667 577.33333333 246.33333333 572.66666667 244 568 C243.59523438 567.25234375 243.19046875 566.5046875 242.7734375 565.734375 C242 564 242 564 242 561 C241.34 561 240.68 561 240 561 C238.4905412 557.90034597 236.99409333 554.79458597 235.5 551.6875 C235.07074219 550.80642578 234.64148438 549.92535156 234.19921875 549.01757812 C233.79316406 548.17001953 233.38710938 547.32246094 232.96875 546.44921875 C232.59169922 545.66893311 232.21464844 544.88864746 231.82617188 544.0847168 C231 542 231 542 231 539 C230.34 539 229.68 539 229 539 C228.67 537.35 228.34 535.7 228 534 C227.34 534 226.68 534 226 534 C225.01 529.545 225.01 529.545 224 525 C223.34 525 222.68 525 222 525 C221.67 523.35 221.34 521.7 221 520 C220.34 520 219.68 520 219 520 C217.67997444 517.44113496 216.36886218 514.87832932 215.0625 512.3125 C214.68931641 511.59126953 214.31613281 510.87003906 213.93164062 510.12695312 C212.06034761 506.43494258 210.51730444 503.16306904 210 499 C209.34 499 208.68 499 208 499 C207.34 496.36 206.68 493.72 206 491 C205.34 491 204.68 491 204 491 C203.67 489.02 203.34 487.04 203 485 C202.34 485 201.68 485 201 485 C200.34 482.36 199.68 479.72 199 477 C198.34 477 197.68 477 197 477 C196.67 475.02 196.34 473.04 196 471 C195.34 471 194.68 471 194 471 C192.74335022 468.09399739 192 466.20395416 192 463 C191.34 463 190.68 463 190 463 C189.01 459.535 189.01 459.535 188 456 C243.44 455.67 298.88 455.34 356 455 C356 454.34 356 453.68 356 453 C356.83402344 452.89042969 357.66804688 452.78085937 358.52734375 452.66796875 C364.66294853 451.8035021 370.39546676 450.79644474 376.1953125 448.5859375 C378 448 378 448 381 448 C381 447.34 381 446.68 381 446 C385.62440425 443.92373687 390.1008651 442.29977048 395 441 C395 440.34 395 439.68 395 439 C396.65 438.67 398.3 438.34 400 438 C400.33 437.01 400.66 436.02 401 435 C402.77734375 433.61328125 402.77734375 433.61328125 404.9375 432.3125 C405.64777344 431.87550781 406.35804688 431.43851562 407.08984375 430.98828125 C409 430 409 430 411 430 C411.33 429.01 411.66 428.02 412 427 C412.66 427 413.32 427 414 427 C414.33 426.01 414.66 425.02 415 424 C419.45714286 420 419.45714286 420 422 420 C422 419.34 422 418.68 422 418 C422.66 418 423.32 418 424 418 C424.25265625 417.42636719 424.5053125 416.85273438 424.765625 416.26171875 C426.15053177 413.72418387 427.77154756 411.91748138 429.75 409.8125 C433.23820421 405.99450194 436.0770223 402.05849708 438.7734375 397.65234375 C439.17820312 397.10707031 439.58296875 396.56179688 440 396 C440.66 396 441.32 396 442 396 C442.144375 395.401875 442.28875 394.80375 442.4375 394.1875 C442.8872439 392.43849596 443.42892341 390.71322977 444 389 C444.66 389 445.32 389 446 389 C446.33 387.68 446.66 386.36 447 385 C447.66 385 448.32 385 449 385 C449.144375 384.236875 449.28875 383.47375 449.4375 382.6875 C450 380 450 380 451 377 C451.66 377 452.32 377 453 377 C453.061875 376.21625 453.12375 375.4325 453.1875 374.625 C453.92380319 371.33995501 454.8190412 369.24218818 456.375 366.3125 C458.72848688 361.82256249 460.1400746 357.46116256 461.32421875 352.54296875 C462.02172517 349.91824807 462.97787469 347.51387575 464 345 C466.2605924 337.9469517 467.58673829 330.88835486 468.5703125 323.5546875 C469 321 469 321 470 320 C470.21425831 318.52697414 470.37045055 317.04537853 470.5 315.5625 C470.5825 314.66789062 470.665 313.77328125 470.75 312.8515625 C470.8325 311.91054688 470.915 310.96953125 471 310 C471.16258882 308.1454713 471.32904656 306.29127634 471.5 304.4375 C471.5721875 303.61121094 471.644375 302.78492188 471.71875 301.93359375 C472 300 472 300 473 299 C473.10082764 296.56339554 473.13972603 294.15575299 473.1328125 291.71875 C473.13376923 290.99006714 473.13472595 290.26138428 473.13571167 289.51062012 C473.13639335 287.9672029 473.13453988 286.42378283 473.13037109 284.88037109 C473.12502262 282.510026 473.13031642 280.13987041 473.13671875 277.76953125 C473.13605797 276.27343708 473.1347768 274.77734303 473.1328125 273.28125 C473.13584885 272.21094543 473.13584885 272.21094543 473.13894653 271.11901855 C473.41648651 267.77513571 473.41648651 267.77513571 472 265 C471.7979717 263.67036756 471.65333027 262.33187879 471.53515625 260.9921875 C471.41817383 259.75855469 471.41817383 259.75855469 471.29882812 258.5 C471.14340047 256.77359699 470.98970509 255.04703699 470.83789062 253.3203125 C470.36059115 248.32224968 469.48424167 243.81942 468 239 C467.46385554 236.22247383 467.01063299 233.44126634 466.5625 230.6484375 C465.98130096 227.91195867 465.07279946 225.58020017 464 223 C463.26888859 220.82000723 462.56155484 218.63193269 461.875 216.4375 C461.34519531 214.76494141 461.34519531 214.76494141 460.8046875 213.05859375 C460 210 460 210 460 206 C459.34 206 458.68 206 458 206 C457.16080602 203.73117913 456.32848276 201.46022973 455.5 199.1875 C455.26152344 198.54490234 455.02304687 197.90230469 454.77734375 197.24023438 C453.72931254 194.35066261 453 192.09923939 453 189 C452.34 189 451.68 189 451 189 C449.74335022 186.09399739 449 184.20395416 449 181 C448.34 181 447.68 181 447 181 C446.67 179.02 446.34 177.04 446 175 C445.01 174.67 444.02 174.34 443 174 C442.67 172.02 442.34 170.04 442 168 C441.01 167.67 440.02 167.34 439 167 C439 166.01 439 165.02 439 164 C438.01 163.67 437.02 163.34 436 163 C434.68359375 160.96875 434.68359375 160.96875 433.4375 158.5 C431.88380682 155.09741461 431.88380682 155.09741461 429 153 C428.67 152.01 428.34 151.02 428 150 C427.195625 149.195625 426.39125 148.39125 425.5625 147.5625 C423.35026339 145.35026339 422.15801474 143.84239983 421 141 C420.34 141 419.68 141 419 141 C418.773125 140.21625 418.54625 139.4325 418.3125 138.625 C417.21875 135.78125 417.21875 135.78125 414.375 134.6875 C413.199375 134.3471875 413.199375 134.3471875 412 134 C412 133.34 412 132.68 412 132 C411.1646875 131.6596875 411.1646875 131.6596875 410.3125 131.3125 C407.37495279 129.64524348 405.38188562 127.38188562 403 125 C400.83379456 123.70480005 400.83379456 123.70480005 399 123 C399 122.34 399 121.68 399 121 C398.278125 120.731875 397.55625 120.46375 396.8125 120.1875 C394.00233617 119.00098638 391.51583443 117.72514361 389 116 C389 115.34 389 114.68 389 114 C388.28972656 113.89300781 387.57945312 113.78601563 386.84765625 113.67578125 C383.69220879 112.92695764 381.2915226 111.72129446 378.4375 110.1875 C370.60440642 106.16953831 362.72151633 103.29922293 354 102 C354 101.34 354 100.68 354 100 C272.82 99.67 191.64 99.34 108 99 C108 381.81 108 664.62 108 956 C72.36 956 36.72 956 0 956 C0 640.52 0 325.04 0 0 Z " fill="#FFFFFF" transform="translate(93,62)"/>
</svg>
